<svg width="63" height="79" viewBox="0 0 63 79" fill="none" xmlns="http://www.w3.org/2000/svg">
<g filter="url(#filter0_d_145_10)">
<mask id="path-1-outside-1_145_10" maskUnits="userSpaceOnUse" x="3" y="0" width="60" height="76" fill="black">
<rect fill="white" x="3" width="60" height="76"/>
<path d="M56 1C59.3137 1 62 3.68629 62 7V52.915C61.9999 56.2286 59.3136 58.915 56 58.915H41.3369L33.1396 73.0928L24.9424 58.915H10C6.68638 58.915 4.00014 56.2286 4 52.915V7C4 3.68629 6.68629 1 10 1H56Z"/>
</mask>
<path d="M56 1C59.3137 1 62 3.68629 62 7V52.915C61.9999 56.2286 59.3136 58.915 56 58.915H41.3369L33.1396 73.0928L24.9424 58.915H10C6.68638 58.915 4.00014 56.2286 4 52.915V7C4 3.68629 6.68629 1 10 1H56Z" fill="white"/>
<path d="M62 52.915L63 52.9151V52.915H62ZM41.3369 58.915V57.915H40.76L40.4712 58.4145L41.3369 58.915ZM33.1396 73.0928L32.2739 73.5933L33.1396 75.0906L34.0054 73.5933L33.1396 73.0928ZM24.9424 58.915L25.8081 58.4145L25.5193 57.915H24.9424V58.915ZM4 52.915L3 52.915L3 52.9151L4 52.915ZM56 1V2C58.7614 2 61 4.23858 61 7H62H63C63 3.13401 59.866 0 56 0V1ZM62 7H61V52.915H62H63V7H62ZM62 52.915L61 52.915C60.9999 55.6764 58.7613 57.915 56 57.915V58.915V59.915C59.8659 59.915 62.9998 56.7809 63 52.9151L62 52.915ZM56 58.915V57.915H41.3369V58.915V59.915H56V58.915ZM41.3369 58.915L40.4712 58.4145L32.2739 72.5922L33.1396 73.0928L34.0054 73.5933L42.2026 59.4156L41.3369 58.915ZM33.1396 73.0928L34.0054 72.5922L25.8081 58.4145L24.9424 58.915L24.0767 59.4156L32.2739 73.5933L33.1396 73.0928ZM24.9424 58.915V57.915H10V58.915V59.915H24.9424V58.915ZM10 58.915V57.915C7.23871 57.915 5.00012 55.6764 5 52.915L4 52.915L3 52.9151C3.00017 56.7809 6.13405 59.915 10 59.915V58.915ZM4 52.915H5V7H4H3V52.915H4ZM4 7H5C5 4.23858 7.23858 2 10 2V1V0C6.13401 0 3 3.13401 3 7H4ZM10 1V2H56V1V0H10V1Z" fill="#FFEF38" mask="url(#path-1-outside-1_145_10)"/>
</g>
<defs>
<filter id="filter0_d_145_10" x="0" y="0" width="63" height="78.0906" filterUnits="userSpaceOnUse" color-interpolation-filters="sRGB">
<feFlood flood-opacity="0" result="BackgroundImageFix"/>
<feColorMatrix in="SourceAlpha" type="matrix" values="0 0 0 0 0 0 0 0 0 0 0 0 0 0 0 0 0 0 127 0" result="hardAlpha"/>
<feOffset dx="-3" dy="3"/>
<feComposite in2="hardAlpha" operator="out"/>
<feColorMatrix type="matrix" values="0 0 0 0 1 0 0 0 0 0.937255 0 0 0 0 0.219608 0 0 0 1 0"/>
<feBlend mode="normal" in2="BackgroundImageFix" result="effect1_dropShadow_145_10"/>
<feBlend mode="normal" in="SourceGraphic" in2="effect1_dropShadow_145_10" result="shape"/>
</filter>
</defs>
</svg>
