<svg width="95" height="92" viewBox="0 0 95 92" fill="none" xmlns="http://www.w3.org/2000/svg">
<path d="M0 9C0 4.02944 4.02944 0 9 0H86C90.9706 0 95 4.02944 95 9V83C95 87.9706 90.9706 92 86 92H9C4.02943 92 0 87.9706 0 83V9Z" fill="#0B103A"/>
<path fill-rule="evenodd" clip-rule="evenodd" d="M29.3438 5.29716C29.1382 5.50278 28.9699 5.86825 28.9699 6.10929C28.9699 6.68958 29.9639 7.32875 30.5681 7.13693C31.1199 6.9619 31.4378 5.95703 31.1079 5.4301C30.7901 4.92203 29.7942 4.84682 29.3438 5.29716ZM30.2086 7.8842C29.917 8.07671 28.0089 11.4292 26.8725 13.7457C26.4539 14.5995 26.039 15.2982 25.9504 15.2982C25.8621 15.2982 24.3708 14.6255 22.6361 13.8032C20.9015 12.981 19.3437 12.3082 19.1742 12.3082C19.0046 12.3082 18.7664 12.4943 18.6447 12.7218C18.2631 13.435 17.5044 16.7107 17.2539 18.7271C17.1216 19.7908 16.9714 20.7035 16.9197 20.755C16.8682 20.8067 15.4958 21.1465 13.8704 21.5101C7.76937 22.8749 7.79352 22.8429 10.732 25.6662C12.8004 27.6536 16.6147 30.9382 16.8541 30.9382C16.985 30.9382 20.2186 28.8374 30.1987 22.2682C34.2509 19.6011 35.1925 18.8851 35.0669 18.5672C34.9814 18.3506 34.1823 16.1032 33.2913 13.5732C31.1765 7.56795 31.0481 7.33059 30.2086 7.8842ZM17.5211 9.90636C16.5158 10.6104 17.1462 12.3082 18.4129 12.3082C18.8883 12.3082 19.228 11.9099 19.4262 11.1194C19.5401 10.6665 19.4554 10.3838 19.0999 10.0283C18.5262 9.45464 18.2017 9.42957 17.5211 9.90636ZM46.2199 17.1799C44.7651 18.2073 38.8139 22.3625 32.9949 26.4135C21.686 34.2864 17.4699 37.3184 17.4699 37.5786C17.4699 37.833 29.5771 45.8586 30.1946 46.0136C30.7505 46.1532 30.8168 46.1095 44.0841 36.895C45.2495 36.0856 46.2038 35.3715 46.2044 35.3082C46.2051 35.245 45.1172 34.4687 43.7869 33.5832C42.4566 32.6977 41.0886 31.7474 40.7465 31.4714C40.132 30.9755 40.1301 30.9654 40.5849 30.608C41.5969 29.8124 48.5369 25.1882 48.7188 25.1882C48.9253 25.1882 58.9474 32.031 64.1461 35.7213L67.2373 37.9158L66.4962 38.4871C66.0886 38.8015 59.3156 43.5508 51.445 49.0411C43.5744 54.5316 37.0491 59.1089 36.9444 59.2131C36.7848 59.3715 42.3517 63.4522 43.1408 63.7551C43.2828 63.8096 51.3562 58.346 61.082 51.6139C80.0165 38.5073 81.1847 37.6825 81.1709 37.4284C81.1569 37.171 79.9388 36.317 66.0367 26.8194C50.421 16.1509 49.5194 15.5418 49.1517 15.4126C48.9939 15.3571 47.6746 16.1522 46.2199 17.1799ZM74.8406 19.5031C71.67 21.6812 68.7835 23.6794 68.4261 23.9437L67.7759 24.4242L70.7747 26.5294C72.424 27.6874 73.9312 28.6953 74.1239 28.7693C74.3408 28.8526 75.7116 28.0508 77.7124 26.6711L80.9499 24.4382V19.9831C80.9499 17.5329 80.8723 15.5315 80.7774 15.5356C80.6824 15.5397 78.0109 17.325 74.8406 19.5031ZM33.7999 20.4611C32.3644 21.4179 21.7175 28.4032 18.6199 30.4205C17.6035 31.0825 17.2776 31.3948 17.6021 31.3962C18.1518 31.3985 24.8181 27.3583 31.0974 23.2169C34.3452 21.0749 35.4099 20.2573 35.4099 19.9054C35.4099 19.6485 35.3839 19.4442 35.3524 19.4514C35.3208 19.4587 34.6221 19.913 33.7999 20.4611ZM6.28196 21.411C5.67844 22.3321 6.07956 23.2128 7.14377 23.3025C8.09344 23.3823 8.55735 22.969 8.55735 22.043C8.55735 20.8192 6.96046 20.3757 6.28196 21.411ZM49.1783 37.3069C43.073 41.4842 26.4951 52.9672 20.5024 57.1697L16.75 59.8012L17.2944 60.2695C17.7827 60.6894 36.9115 73.7801 45.6262 79.6578L49.0574 81.972L53.4462 78.9843C59.429 74.9115 80.4498 60.2803 80.7504 59.9797C80.9202 59.8099 79.0662 58.4571 74.5529 55.4579C71.0109 53.104 67.9601 51.1782 67.7736 51.1782C67.4712 51.1782 53.6035 60.5892 52.6024 61.474C52.3809 61.6695 52.1999 61.9025 52.1999 61.9917C52.1999 62.0809 53.4936 63.0646 55.0749 64.1778C56.6561 65.291 57.9494 66.2628 57.9487 66.3375C57.9471 66.5572 49.6411 72.2288 49.4141 72.1653C49.2319 72.1142 38.6002 64.84 33.057 60.9737C31.9527 60.2034 31.0813 59.4709 31.1204 59.346C31.2096 59.0603 31.599 58.7834 47.48 47.7087C54.6931 42.6784 60.7894 38.4172 61.0275 38.2391C61.4277 37.9397 61.2292 37.76 58.3825 35.8462C56.6897 34.7082 55.1871 33.7086 55.0433 33.6251C54.8994 33.5414 52.2601 35.1983 49.1783 37.3069ZM22.7417 68.9271C22.3091 69.1872 20.8421 70.1786 19.4824 71.1301L17.0099 72.8601V77.3141C17.0099 79.7638 17.0722 81.7682 17.1481 81.7682C17.313 81.7682 22.5611 78.194 26.8812 75.1396L29.9678 72.9576L29.4112 72.5045C28.5584 71.8104 24.546 68.9904 24.0067 68.7063C23.626 68.5055 23.3684 68.5506 22.7417 68.9271Z" fill="#FFEF38"/>
</svg>
