<svg width="18" height="26" viewBox="0 0 18 26" fill="none" xmlns="http://www.w3.org/2000/svg">
<path d="M17.1812 8.58187C17.1812 6.07365 16.2142 4.10696 14.6534 2.77522C13.1323 1.47693 11.1612 0.87354 9.2431 0.798433C5.5685 0.654529 1.11064 2.51834 0.177788 6.68587C0.132574 6.88811 0.127637 7.09727 0.163258 7.30142C0.19888 7.50557 0.274362 7.7007 0.385396 7.87567C0.496429 8.05065 0.64084 8.20204 0.810382 8.32121C0.979923 8.44037 1.17128 8.52498 1.37352 8.57019C1.57575 8.6154 1.78492 8.62034 1.98907 8.58472C2.19321 8.5491 2.38834 8.47362 2.56332 8.36258C2.73829 8.25155 2.88969 8.10714 3.00885 7.9376C3.12802 7.76805 3.21262 7.5767 3.25784 7.37446C3.71353 5.33582 6.19903 3.83746 9.11939 3.95169C10.4991 4.00597 11.7387 4.43706 12.6046 5.17614C13.4302 5.87988 14.0254 6.95285 14.0254 8.58187C14.0254 10.1907 13.2225 11.2491 12.0511 11.9964C10.8229 12.7803 9.2816 13.1407 8.23514 13.2139C7.83663 13.2417 7.4635 13.4197 7.19104 13.7118C6.91857 14.0039 6.76706 14.3886 6.76707 14.788V17.5159C6.76707 17.9344 6.93331 18.3357 7.22923 18.6316C7.52514 18.9276 7.92648 19.0938 8.34496 19.0938C8.76345 19.0938 9.16479 18.9276 9.4607 18.6316C9.75662 18.3357 9.92286 17.9344 9.92286 17.5159V16.1583C11.1284 15.9134 12.5119 15.4463 13.7489 14.6574C15.5894 13.4828 17.1812 11.5243 17.1812 8.58187ZM8.66054 20.6717C7.99097 20.6717 7.34882 20.9377 6.87536 21.4111C6.4019 21.8846 6.13591 22.5267 6.13591 23.1963C6.13591 23.8659 6.4019 24.508 6.87536 24.9815C7.34882 25.455 7.99097 25.7209 8.66054 25.7209C9.33012 25.7209 9.97227 25.455 10.4457 24.9815C10.9192 24.508 11.1852 23.8659 11.1852 23.1963C11.1852 22.5267 10.9192 21.8846 10.4457 21.4111C9.97227 20.9377 9.33012 20.6717 8.66054 20.6717Z" fill="#6D6C6C"/>
</svg>
